<?xml version="1.0" encoding="utf-8"?>
<!-- Generator: Adobe Illustrator 16.0.0, SVG Export Plug-In . SVG Version: 6.00 Build 0)  -->
<!DOCTYPE svg PUBLIC "-//W3C//DTD SVG 1.1//EN" "http://www.w3.org/Graphics/SVG/1.1/DTD/svg11.dtd">
<svg version="1.1" id="Layer_1" xmlns="http://www.w3.org/2000/svg" xmlns:xlink="http://www.w3.org/1999/xlink" x="0px" y="0px"
	 width="78.261px" height="73.913px" viewBox="0 0 78.261 73.913" enable-background="new 0 0 78.261 73.913" xml:space="preserve">
<g>
	<path fill="#30BAEC" d="M66.157,32.36h-1.462c-0.472,0-0.877-0.34-0.951-0.806c-1.657-10.446-9.903-18.692-20.35-20.35
		c-0.466-0.074-0.806-0.48-0.806-0.951V8.792c0-0.534-0.433-0.966-0.966-0.966h-4.202c-0.534,0-0.966,0.433-0.966,0.966v1.461
		c0,0.471-0.34,0.877-0.806,0.951c-10.446,1.657-18.692,9.903-20.35,20.35c-0.074,0.466-0.479,0.806-0.951,0.806h-1.462
		c-0.533,0-0.966,0.432-0.966,0.966v4.202c0,0.533,0.433,0.966,0.966,0.966h1.462c0.472,0,0.877,0.34,0.951,0.807
		c1.657,10.445,9.903,18.691,20.35,20.35c0.465,0.073,0.806,0.479,0.806,0.951v1.461c0,0.533,0.433,0.966,0.966,0.966h4.202
		c0.533,0,0.966-0.433,0.966-0.966v-1.461c0-0.473,0.34-0.878,0.806-0.951c10.446-1.658,18.692-9.904,20.35-20.35
		c0.074-0.467,0.479-0.807,0.951-0.807h1.462c0.533,0,0.966-0.433,0.966-0.966v-4.202C67.123,32.792,66.69,32.36,66.157,32.36z
		 M36.455,35.426c0-1.694,1.373-3.066,3.067-3.066s3.067,1.373,3.067,3.066s-1.373,3.067-3.067,3.067S36.455,37.12,36.455,35.426z
		 M42.588,52.386v-7.629c0-0.385,0.229-0.731,0.581-0.884c3.529-1.526,5.915-5.198,5.507-9.372c-0.434-4.44-4.104-7.974-8.556-8.256
		c-5.353-0.339-9.799,3.902-9.799,9.181c0,3.788,2.289,7.038,5.558,8.45c0.351,0.15,0.576,0.498,0.576,0.881v7.629
		c0,0.619-0.575,1.087-1.176,0.945c-6.753-1.596-12.066-6.908-13.661-13.661c-0.142-0.602,0.326-1.177,0.944-1.177h0.66
		c0.534,0,0.966-0.433,0.966-0.966v-4.202c0-0.534-0.432-0.966-0.966-0.966h-0.66c-0.618,0-1.086-0.575-0.944-1.177
		c1.594-6.753,6.908-12.066,13.661-13.661c0.602-0.142,1.176,0.326,1.176,0.944v0.66c0,0.534,0.433,0.966,0.966,0.966h4.202
		c0.533,0,0.966-0.433,0.966-0.966v-0.66c0-0.618,0.575-1.086,1.177-0.944c6.753,1.594,12.066,6.908,13.66,13.661
		c0.143,0.602-0.325,1.177-0.943,1.177h-0.66c-0.534,0-0.966,0.432-0.966,0.966v4.202c0,0.533,0.432,0.966,0.966,0.966h0.66
		c0.618,0,1.086,0.575,0.943,1.177c-1.594,6.753-6.907,12.065-13.66,13.661C43.164,53.473,42.588,53.005,42.588,52.386z"/>
</g>
</svg>
