<?xml version="1.0" encoding="utf-8"?>
<!-- Generator: Adobe Illustrator 16.0.0, SVG Export Plug-In . SVG Version: 6.00 Build 0)  -->
<!DOCTYPE svg PUBLIC "-//W3C//DTD SVG 1.1//EN" "http://www.w3.org/Graphics/SVG/1.1/DTD/svg11.dtd">
<svg version="1.1" id="Layer_1" xmlns="http://www.w3.org/2000/svg" xmlns:xlink="http://www.w3.org/1999/xlink" x="0px" y="0px"
	 width="254.334px" height="50px" viewBox="0 0 254.334 50" enable-background="new 0 0 254.334 50" xml:space="preserve">
<g>
	<path fill="#29B7EA" d="M47.181,22.488h-1.198c-0.386,0-0.718-0.279-0.779-0.66c-1.358-8.56-8.114-15.315-16.673-16.673
		c-0.382-0.061-0.661-0.394-0.661-0.779V3.177c0-0.437-0.354-0.792-0.791-0.792h-3.443c-0.437,0-0.791,0.355-0.791,0.792v1.198
		c0,0.386-0.279,0.718-0.66,0.779C13.625,6.512,6.87,13.268,5.512,21.828c-0.061,0.381-0.393,0.66-0.779,0.66H3.535
		c-0.437,0-0.792,0.354-0.792,0.791v3.444c0,0.437,0.355,0.791,0.792,0.791h1.198c0.386,0,0.718,0.277,0.779,0.66
		c1.358,8.559,8.114,15.316,16.673,16.674c0.381,0.06,0.66,0.394,0.66,0.779v1.197c0,0.436,0.354,0.791,0.791,0.791h3.443
		c0.437,0,0.791-0.355,0.791-0.791v-1.197c0-0.387,0.279-0.721,0.661-0.779c8.559-1.356,15.315-8.115,16.673-16.674
		c0.061-0.383,0.393-0.66,0.779-0.66h1.198c0.437,0,0.792-0.354,0.792-0.791v-3.444C47.972,22.842,47.618,22.488,47.181,22.488z
		 M22.845,25c0-1.388,1.125-2.513,2.513-2.513c1.388,0,2.512,1.125,2.512,2.513c0,1.389-1.125,2.514-2.512,2.514
		C23.97,27.514,22.845,26.389,22.845,25z M27.87,38.896v-6.252c0-0.314,0.188-0.601,0.476-0.724c2.892-1.25,4.847-4.26,4.512-7.68
		c-0.355-3.638-3.362-6.533-7.01-6.764C21.463,17.2,17.82,20.675,17.82,25c0,3.104,1.875,5.768,4.554,6.923
		c0.287,0.123,0.472,0.408,0.472,0.722v6.252c0,0.506-0.471,0.891-0.964,0.772c-5.533-1.308-9.887-5.66-11.192-11.192
		c-0.116-0.492,0.267-0.963,0.773-0.963h0.541c0.437,0,0.792-0.355,0.792-0.793v-3.443c0-0.437-0.354-0.791-0.792-0.791h-0.541
		c-0.506,0-0.89-0.471-0.773-0.964c1.306-5.533,5.66-9.887,11.192-11.192c0.493-0.116,0.964,0.267,0.964,0.773v0.541
		c0,0.438,0.354,0.792,0.791,0.792h3.443c0.437,0,0.791-0.354,0.791-0.792v-0.541c0-0.507,0.472-0.89,0.964-0.773
		c5.533,1.306,9.887,5.66,11.192,11.192c0.118,0.493-0.267,0.964-0.773,0.964h-0.54c-0.438,0-0.792,0.354-0.792,0.791v3.443
		c0,0.438,0.354,0.793,0.792,0.793h0.54c0.506,0,0.891,0.471,0.773,0.963c-1.305,5.532-5.659,9.887-11.192,11.192
		C28.342,39.787,27.87,39.402,27.87,38.896z"/>
</g>
<text transform="matrix(1 0 0 1 54.9707 40.3906)" fill="#999999" font-family="'BebasNeue'" font-size="41.9278">DOCKUNIT</text>
<text transform="matrix(1 0 0 1 183.666 38.1572)" fill="#ADADAD" font-family="'TimesNewRomanPS-BoldMT'" font-size="16.9271">[BETA]</text>
</svg>
